<mxfile host="65bd71144e">
    <diagram id="xtEK7SXOJhzq-CabDOTt" name="PÃ¡gina-1">
        <mxGraphModel dx="697" dy="205" grid="1" gridSize="10" guides="1" tooltips="1" connect="1" arrows="1" fold="1" page="1" pageScale="1" pageWidth="827" pageHeight="1169" math="0" shadow="0">
            <root>
                <mxCell id="0"/>
                <mxCell id="1" parent="0"/>
                <mxCell id="4" value="" style="edgeStyle=none;html=1;fontColor=#080808;fontStyle=1;align=center;" edge="1" parent="1" source="2" target="3">
                    <mxGeometry relative="1" as="geometry"/>
                </mxCell>
                <mxCell id="2" value="INCIO" style="ellipse;whiteSpace=wrap;html=1;fillColor=#60a917;fontColor=#ffffff;strokeColor=#2D7600;" vertex="1" parent="1">
                    <mxGeometry x="460" y="20" width="100" height="50" as="geometry"/>
                </mxCell>
                <mxCell id="6" value="" style="edgeStyle=none;html=1;fontColor=#080808;fontStyle=1;align=center;" edge="1" parent="1" source="3" target="5">
                    <mxGeometry relative="1" as="geometry"/>
                </mxCell>
                <mxCell id="3" value="precio-costo" style="shape=parallelogram;perimeter=parallelogramPerimeter;whiteSpace=wrap;html=1;fixedSize=1;fillColor=#6a00ff;fontColor=#080808;strokeColor=#3700CC;fontStyle=1;align=center;" vertex="1" parent="1">
                    <mxGeometry x="460" y="90" width="100" height="45" as="geometry"/>
                </mxCell>
                <mxCell id="8" value="" style="edgeStyle=none;html=1;fontColor=#080808;fontStyle=1;align=center;" edge="1" parent="1" source="5" target="7">
                    <mxGeometry relative="1" as="geometry">
                        <Array as="points">
                            <mxPoint x="360" y="200"/>
                        </Array>
                    </mxGeometry>
                </mxCell>
                <mxCell id="10" value="" style="edgeStyle=none;html=1;fontColor=#080808;fontStyle=1;align=center;" edge="1" parent="1" source="5" target="9">
                    <mxGeometry relative="1" as="geometry">
                        <Array as="points">
                            <mxPoint x="645" y="200"/>
                        </Array>
                    </mxGeometry>
                </mxCell>
                <mxCell id="5" value="precio-costo&amp;lt;3000" style="rhombus;whiteSpace=wrap;html=1;fillColor=#0050ef;fontColor=#080808;strokeColor=#001DBC;fontStyle=1;align=center;" vertex="1" parent="1">
                    <mxGeometry x="430" y="170" width="160" height="60" as="geometry"/>
                </mxCell>
                <mxCell id="11" value="" style="edgeStyle=none;html=1;entryX=0.5;entryY=0;entryDx=0;entryDy=0;fontColor=#080808;fontStyle=1;align=center;" edge="1" parent="1" source="7" target="12">
                    <mxGeometry relative="1" as="geometry">
                        <mxPoint x="470" y="290" as="targetPoint"/>
                        <Array as="points">
                            <mxPoint x="475" y="262"/>
                        </Array>
                    </mxGeometry>
                </mxCell>
                <mxCell id="14" value="" style="edgeStyle=none;html=1;fontColor=#080808;fontStyle=1;align=center;" edge="1" parent="1" source="7" target="13">
                    <mxGeometry relative="1" as="geometry">
                        <Array as="points">
                            <mxPoint x="235" y="260"/>
                        </Array>
                    </mxGeometry>
                </mxCell>
                <mxCell id="7" value="precio-costo&amp;lt;=6000" style="rhombus;whiteSpace=wrap;html=1;fillColor=#d80073;fontColor=#080808;strokeColor=#A50040;fontStyle=1;align=center;" vertex="1" parent="1">
                    <mxGeometry x="280" y="237" width="140" height="50" as="geometry"/>
                </mxCell>
                <mxCell id="16" style="edgeStyle=none;html=1;fontColor=#080808;fontStyle=1;align=center;" edge="1" parent="1" source="9">
                    <mxGeometry relative="1" as="geometry">
                        <mxPoint x="370" y="380" as="targetPoint"/>
                        <Array as="points">
                            <mxPoint x="650" y="290"/>
                            <mxPoint x="650" y="410"/>
                            <mxPoint x="370" y="410"/>
                        </Array>
                    </mxGeometry>
                </mxCell>
                <mxCell id="9" value="gancia=0.15*precio-costo" style="whiteSpace=wrap;html=1;fillColor=#008a00;fontColor=#080808;strokeColor=#005700;fontStyle=1;align=center;" vertex="1" parent="1">
                    <mxGeometry x="580" y="237" width="140" height="36" as="geometry"/>
                </mxCell>
                <mxCell id="12" value="ganancia=500" style="rounded=0;whiteSpace=wrap;html=1;fillColor=#a20025;fontColor=#080808;strokeColor=#6F0000;fontStyle=1;align=center;" vertex="1" parent="1">
                    <mxGeometry x="430" y="287" width="90" height="30" as="geometry"/>
                </mxCell>
                <mxCell id="15" style="edgeStyle=none;html=1;entryX=0.671;entryY=1;entryDx=0;entryDy=0;entryPerimeter=0;fontColor=#080808;fontStyle=1;align=center;" edge="1" parent="1" source="13" target="12">
                    <mxGeometry relative="1" as="geometry">
                        <Array as="points">
                            <mxPoint x="235" y="380"/>
                            <mxPoint x="490" y="380"/>
                        </Array>
                    </mxGeometry>
                </mxCell>
                <mxCell id="13" value="ganancia=0.25*precio-costo" style="whiteSpace=wrap;html=1;fillColor=#1ba1e2;fontColor=#080808;strokeColor=#006EAF;fontStyle=1;align=center;" vertex="1" parent="1">
                    <mxGeometry x="140" y="285" width="190" height="32" as="geometry"/>
                </mxCell>
                <mxCell id="17" value="" style="edgeStyle=none;orthogonalLoop=1;jettySize=auto;html=1;entryX=0.5;entryY=0;entryDx=0;entryDy=0;fontColor=#080808;fontStyle=1;align=center;" edge="1" parent="1" target="18">
                    <mxGeometry width="100" relative="1" as="geometry">
                        <mxPoint x="510" y="410" as="sourcePoint"/>
                        <mxPoint x="510" y="450" as="targetPoint"/>
                        <Array as="points"/>
                    </mxGeometry>
                </mxCell>
                <mxCell id="22" value="" style="edgeStyle=none;html=1;fontColor=#080808;fontStyle=1;align=center;" edge="1" parent="1" source="18" target="21">
                    <mxGeometry relative="1" as="geometry"/>
                </mxCell>
                <mxCell id="18" value="precio-venta=precio-costo ganancia" style="rounded=0;whiteSpace=wrap;html=1;fillColor=#e3c800;fontColor=#080808;strokeColor=#B09500;fontStyle=1;align=center;" vertex="1" parent="1">
                    <mxGeometry x="410" y="450" width="200" height="40" as="geometry"/>
                </mxCell>
                <mxCell id="25" value="" style="edgeStyle=none;html=1;fontColor=#080808;fontStyle=1;align=center;" edge="1" parent="1" source="21" target="24">
                    <mxGeometry relative="1" as="geometry"/>
                </mxCell>
                <mxCell id="21" value="precio-venta" style="shape=document;whiteSpace=wrap;html=1;boundedLbl=1;rounded=0;fillColor=#6d8764;fontColor=#080808;strokeColor=#3A5431;fontStyle=1;align=center;" vertex="1" parent="1">
                    <mxGeometry x="460" y="515" width="100" height="55" as="geometry"/>
                </mxCell>
                <mxCell id="24" value="FIN" style="ellipse;whiteSpace=wrap;html=1;rounded=0;fillColor=#a0522d;fontColor=#080808;strokeColor=#6D1F00;fontStyle=1;align=center;" vertex="1" parent="1">
                    <mxGeometry x="470" y="600" width="80" height="50" as="geometry"/>
                </mxCell>
            </root>
        </mxGraphModel>
    </diagram>
</mxfile>